<svg width="24" height="24" viewBox="0 0 24 24" fill="none" xmlns="http://www.w3.org/2000/svg">
<circle cx="12" cy="12" r="12" fill="#7A8498"/>
<path d="M16.1641 17.5098C16.1641 17.239 15.9445 17.0195 15.6738 17.0195H7.03224C6.76146 17.0195 6.54194 17.239 6.54194 17.5098C6.54194 17.7806 6.76146 18.0001 7.03224 18.0001H15.6738C15.9445 18.0001 16.1641 17.7806 16.1641 17.5098Z" fill="white"/>
<path d="M6.96542 10.2778H11.3281V17.0194H10.2142C9.20865 17.0194 7.91133 15.901 7.49142 15.3187C7.25936 14.997 7.13559 14.7671 6.919 14.2922C6.62556 13.6486 6.56834 13.0153 6.54771 12.6834V10.7528C6.54771 10.4341 6.82618 10.3034 6.96542 10.2778Z" fill="white"/>
<path d="M15.6557 10.2778H11.293V17.0194H12.4069C13.4124 17.0194 14.7098 15.901 15.1297 15.3187C15.3617 14.997 15.4855 14.7671 15.7021 14.2922C15.9955 13.6486 16.0528 13.0153 16.0734 12.6834V10.7528C16.0734 10.4341 15.7949 10.3034 15.6557 10.2778Z" fill="white"/>
<path fill-rule="evenodd" clip-rule="evenodd" d="M15.7771 14.0769C14.689 13.9203 14.2099 13.1349 14.2857 12.6084C14.3615 12.0818 15.0427 11.4635 16.1307 11.6201C17.2188 11.7767 17.6979 12.5621 17.6221 13.0887C17.5463 13.6152 16.8651 14.2335 15.7771 14.0769ZM15.6461 14.9868C14.2222 14.7819 13.2057 13.6584 13.3757 12.4774C13.5458 11.2964 14.8378 10.5052 16.2617 10.7102C17.6856 10.9151 18.702 12.0387 18.532 13.2196C18.362 14.4006 17.0699 15.1918 15.6461 14.9868Z" fill="white"/>
<path fill-rule="evenodd" clip-rule="evenodd" d="M12.3663 4.52779C12.5295 4.72217 12.5043 5.01211 12.31 5.1754C12.1207 5.33439 11.7831 5.78643 11.7831 6.29433V6.30527L11.7826 6.3162C11.7826 6.31591 11.7826 6.31601 11.7826 6.31648C11.783 6.32275 11.7874 6.39564 11.867 6.54201C11.9501 6.69471 12.1047 6.9077 12.3796 7.17551L12.399 7.19441L12.4161 7.21547C12.4218 7.22253 12.4277 7.22979 12.4338 7.23726C12.5256 7.35013 12.6557 7.51026 12.7498 7.71834C12.8557 7.95252 12.9082 8.22462 12.8852 8.56259C12.8679 8.81586 12.6486 9.00718 12.3953 8.98991C12.1421 8.97265 11.9507 8.75333 11.968 8.50006C11.9817 8.2987 11.9497 8.18009 11.9122 8.0971C11.8714 8.00688 11.8146 7.9337 11.7183 7.81461C11.1135 7.21973 10.8499 6.69539 10.8638 6.28469C10.8677 5.42429 11.3984 4.74049 11.7187 4.47148C11.913 4.30819 12.203 4.33341 12.3663 4.52779Z" fill="white"/>
<path fill-rule="evenodd" clip-rule="evenodd" d="M9.70505 5.81806C9.95118 5.88023 10.1003 6.13015 10.0381 6.37628C9.9577 6.69474 9.98684 6.89215 10.0426 7.03155C10.1029 7.18201 10.2148 7.31805 10.3931 7.48446C10.4427 7.53078 10.5002 7.58064 10.5627 7.63481C10.8981 7.92537 11.3767 8.34003 11.5436 8.99789C11.606 9.24395 11.4572 9.49404 11.2111 9.55648C10.9651 9.61892 10.715 9.47007 10.6525 9.22401C10.5623 8.86844 10.341 8.67179 10.0195 8.38602C9.94075 8.31606 9.85602 8.24076 9.76574 8.15648C9.55659 7.96125 9.32538 7.71344 9.18918 7.3732C9.04856 7.02191 9.02795 6.62176 9.14682 6.15115C9.20899 5.90502 9.45892 5.75589 9.70505 5.81806Z" fill="white"/>
</svg>
