<svg width="24" height="24" viewBox="0 0 24 24" fill="none" xmlns="http://www.w3.org/2000/svg">
<circle cx="12" cy="12" r="12" fill="#7A8498"/>
<path fill-rule="evenodd" clip-rule="evenodd" d="M12.0342 5.79155C12.043 5.79128 12.0519 5.79102 12.0607 5.79077V5.79241C16.6253 5.94735 18.4427 9.59342 18.2164 12.065H12.0607H12.0076H5.79948C5.5732 9.59342 7.44262 5.94735 12.0076 5.79241V5.79077C12.0165 5.79102 12.0253 5.79128 12.0342 5.79155Z" fill="white"/>
<path fill-rule="evenodd" clip-rule="evenodd" d="M12.0394 4.36446C12.3932 4.37487 13.088 4.57223 13.1911 5.32081C12.6913 5.22099 12.4096 5.22099 12.0099 5.22099V5.22031C11.6241 5.22037 11.3155 5.22278 10.8281 5.32012C10.9311 4.57238 11.6673 4.37527 12.0099 4.36449V4.36401C12.0148 4.36401 12.0198 4.36405 12.0249 4.36413C12.0298 4.36405 12.0347 4.36401 12.0394 4.36401V4.36446Z" fill="white"/>
<path d="M5.23987 12.9348H14.7348H15.174L14.3108 14.6175H6.08791C5.62755 14.6175 5.1995 14.1707 5.04301 13.9473C5.00263 13.895 4.91883 13.7077 4.90671 13.3769C4.8946 13.046 5.12377 12.9443 5.23987 12.9348Z" fill="white"/>
<path d="M18.8383 12.9482H9.3433H8.90413L9.7673 14.6309H17.9902C18.4506 14.6309 18.8786 14.1841 19.0351 13.9607C19.0755 13.9084 19.1593 13.7211 19.1714 13.3903C19.1835 13.0595 18.9544 12.9577 18.8383 12.9482Z" fill="white"/>
<path fill-rule="evenodd" clip-rule="evenodd" d="M8.92242 18.2216L6.33836 16.4646C6.28952 16.4314 6.22301 16.4441 6.18981 16.4929L5.79294 17.0766C5.75973 17.1255 5.7724 17.192 5.82124 17.2252L8.4053 18.9822C8.45413 19.0154 8.52064 19.0027 8.55385 18.9538L8.95072 18.3702C8.98392 18.3213 8.97125 18.2548 8.92242 18.2216ZM6.57885 16.1109C6.33467 15.9449 6.00213 16.0083 5.8361 16.2524L5.43923 16.8361C5.2732 17.0803 5.33656 17.4129 5.58074 17.5789L8.1648 19.3359C8.40899 19.5019 8.74153 19.4385 8.90756 19.1943L9.30443 18.6106C9.47045 18.3665 9.4071 18.0339 9.16291 17.8679L6.57885 16.1109Z" fill="white"/>
<path fill-rule="evenodd" clip-rule="evenodd" d="M8.40944 14.3716C8.57151 14.3249 8.79997 14.2886 9.10418 14.2886C9.35441 14.2886 9.7067 14.3904 10.0352 14.4912C10.0938 14.5092 10.1523 14.5274 10.2102 14.5454C10.4763 14.6281 10.7311 14.7073 10.9444 14.7516L11.4493 14.6284C11.4515 14.6279 11.4538 14.6274 11.4561 14.6269L12.619 14.3863C12.6389 14.3822 12.6594 14.3811 12.6796 14.3831L13.0806 14.4232C13.1364 14.4288 13.1874 14.4575 13.221 14.5024C13.2598 14.5542 13.316 14.6381 13.3635 14.7289C13.4063 14.8106 13.4616 14.9332 13.4616 15.0505C13.4616 15.17 13.4099 15.2754 13.3656 15.3458C13.3191 15.4196 13.2639 15.4811 13.2234 15.5186C13.2136 15.5276 13.2029 15.5357 13.1915 15.5426L13.1215 15.5851H13.2312L14.4433 15.2151L15.6745 14.3768C15.6847 14.3699 15.6954 14.364 15.7066 14.359C15.7866 14.3238 15.9113 14.2911 16.0483 14.2957C16.1885 14.3004 16.3546 14.3451 16.4905 14.481C16.6279 14.6184 16.6672 14.7801 16.6551 14.9219C16.6437 15.0552 16.5878 15.1683 16.5359 15.2376C16.5285 15.2474 16.5203 15.2565 16.5112 15.2648C16.1776 15.5718 15.4381 16.2496 15.1583 16.4972C14.8673 16.7546 14.5823 16.8856 14.4471 16.9251C12.9617 17.4914 12.3643 17.4965 12.018 17.4965C11.7491 17.4965 10.8438 17.4148 10.4349 17.3753C10.4343 17.3752 10.4337 17.3752 10.4331 17.3751C10.4326 17.375 10.4322 17.375 10.4317 17.3749C10.1079 17.3385 9.79836 17.4394 9.53663 17.5898C9.27431 17.7406 9.07564 17.9323 8.98126 18.0498C8.91564 18.1315 8.79817 18.1489 8.7117 18.0897L6.46615 16.5525C6.42021 16.5211 6.38942 16.472 6.38114 16.4169C6.37286 16.3619 6.38784 16.3058 6.42249 16.2623C6.5814 16.0625 7.03076 15.5338 7.30861 15.2132C7.58861 14.8901 7.93827 14.6295 8.10474 14.5217C8.11676 14.51 8.12823 14.5008 8.13725 14.494C8.15921 14.4774 8.18392 14.4624 8.2099 14.4488C8.26208 14.4214 8.32867 14.3949 8.40944 14.3716ZM8.38412 14.8106C8.37171 14.8244 8.35742 14.8363 8.34163 14.8462C8.21091 14.9279 7.87317 15.1741 7.61163 15.4758C7.39397 15.727 7.07468 16.1017 6.87279 16.345L8.79355 17.6598C8.92612 17.5257 9.11248 17.3711 9.33684 17.2421C9.64496 17.0651 10.0403 16.9278 10.475 16.9763C10.8954 17.017 11.774 17.0955 12.018 17.0955L12.026 17.0955C12.3227 17.0956 12.8763 17.0956 14.3124 16.5473C14.3185 16.545 14.3248 16.5429 14.3311 16.5412C14.3967 16.5233 14.6354 16.4244 14.8926 16.1968C15.1644 15.9565 15.8812 15.2995 16.2231 14.9851C16.2368 14.9625 16.2523 14.9261 16.2556 14.8877C16.2588 14.8498 16.2514 14.8089 16.207 14.7645C16.1611 14.7186 16.1022 14.6987 16.035 14.6965C15.974 14.6944 15.917 14.7078 15.8825 14.7203L14.6438 15.5637C14.6271 15.5751 14.2958 15.7168 14.2765 15.7227L13.3197 15.9774C13.3007 15.9832 13.281 15.9861 13.2611 15.9861H12.4057C12.3158 15.9861 12.2369 15.9263 12.2126 15.8397C12.1884 15.7531 12.2247 15.661 12.3015 15.6143L12.9637 15.2118C12.9815 15.1934 13.0057 15.1647 13.0263 15.1321C13.0543 15.0877 13.0606 15.0595 13.0606 15.0506C13.0606 15.0506 13.0605 15.0472 13.059 15.0397C13.0573 15.0316 13.0544 15.021 13.0498 15.0077C13.0404 14.9808 13.0262 14.9491 13.0083 14.9149C12.9895 14.8789 12.9684 14.8437 12.9486 14.813L12.6702 14.7852L11.5408 15.0189L10.9962 15.1517C10.9684 15.1585 10.9394 15.1592 10.9112 15.1538C10.6652 15.107 10.3668 15.0141 10.0836 14.926C10.0274 14.9085 9.97191 14.8912 9.91751 14.8745C9.57098 14.7682 9.28168 14.6896 9.10419 14.6896C8.83096 14.6896 8.64062 14.7223 8.52044 14.7569C8.46007 14.7743 8.41968 14.7915 8.39625 14.8038C8.39111 14.8065 8.3871 14.8088 8.38412 14.8106Z" fill="white"/>
</svg>
