<svg width="24" height="24" viewBox="0 0 24 24" fill="none" xmlns="http://www.w3.org/2000/svg">
<circle cx="12" cy="12" r="12" fill="#7A8498"/>
<path d="M11.758 6.66187C7.31955 6.79327 5.5529 10.5455 5.77191 13.086H11.758L11.758 6.66187Z" fill="white"/>
<path d="M11.7599 5.78591C11.3745 5.78591 11.1029 5.78591 10.6211 5.88811C10.7233 5.0997 11.4387 4.89529 11.7599 4.9099V5.78591Z" fill="white"/>
<path d="M11.7596 5.78664C12.1451 5.78664 12.4166 5.78664 12.8984 5.88884C12.7962 5.10043 12.0808 4.89603 11.7596 4.91063V5.78664Z" fill="white"/>
<path fill-rule="evenodd" clip-rule="evenodd" d="M14.3768 13.9766H5.23181C5.11987 13.9863 4.89892 14.0904 4.9106 14.4292C4.92228 14.7679 5.00308 14.9596 5.04201 15.0132C5.19288 15.2419 5.60558 15.6994 6.04943 15.6994H13.7547C13.8051 15.061 14.028 14.4712 14.3768 13.9766Z" fill="white"/>
<path fill-rule="evenodd" clip-rule="evenodd" d="M17.7606 12.544C17.7062 10.0447 15.8898 6.78419 11.7578 6.66187L11.7578 13.086H15.2895C15.8413 12.7171 16.5047 12.5019 17.2183 12.5019C17.4028 12.5019 17.5839 12.5163 17.7606 12.544Z" fill="white"/>
<path fill-rule="evenodd" clip-rule="evenodd" d="M17.2218 18.634C18.6733 18.634 19.8498 17.4574 19.8498 16.006C19.8498 14.5545 18.6733 13.3779 17.2218 13.3779C15.7703 13.3779 14.5938 14.5545 14.5938 16.006C14.5938 17.4574 15.7703 18.634 17.2218 18.634ZM17.6452 15.1154C17.6452 14.8815 17.4556 14.6919 17.2218 14.6919C16.988 14.6919 16.7984 14.8815 16.7984 15.1154V15.5972H16.3312C16.0973 15.5972 15.9078 15.7867 15.9078 16.0206C15.9078 16.2544 16.0973 16.444 16.3312 16.444H17.2218C17.4556 16.444 17.6452 16.2544 17.6452 16.0206V15.1154Z" fill="white"/>
</svg>
