<svg width="36" height="36" viewBox="0 0 36 36" fill="none" xmlns="http://www.w3.org/2000/svg">
<circle cx="18" cy="18" r="18" fill="#F48D31"/>
<path d="M17.5445 10.1467C11.0346 10.3438 8.44347 15.9722 8.76469 19.7829H17.5445L17.5445 10.1467Z" fill="white"/>
<path d="M17.5453 8.83267C16.98 8.83267 16.5817 8.83267 15.875 8.98597C16.0249 7.80335 17.0742 7.49675 17.5453 7.51865V8.83267Z" fill="white"/>
<path d="M17.5406 8.83365C18.106 8.83365 18.5043 8.83365 19.2109 8.98695C19.061 7.80433 18.0117 7.49773 17.5406 7.51963V8.83365Z" fill="white"/>
<path fill-rule="evenodd" clip-rule="evenodd" d="M21.3847 21.1188H7.97176C7.80759 21.1334 7.48352 21.2896 7.50065 21.7977C7.51778 22.3058 7.63629 22.5934 7.6934 22.6737C7.91468 23.0168 8.51998 23.703 9.17097 23.703H20.4722C20.5462 22.7455 20.8731 21.8608 21.3847 21.1188Z" fill="white"/>
<path fill-rule="evenodd" clip-rule="evenodd" d="M26.3473 18.97C26.2675 15.2209 23.6034 10.3302 17.543 10.1467L17.543 19.7829H22.7229C23.5322 19.2295 24.5052 18.9069 25.5518 18.9069C25.8224 18.9069 26.0881 18.9284 26.3473 18.97Z" fill="white"/>
<path fill-rule="evenodd" clip-rule="evenodd" d="M25.5538 28.1049C27.6826 28.1049 29.4083 26.34 29.4083 24.1629C29.4083 21.9857 27.6826 20.2208 25.5538 20.2208C23.4249 20.2208 21.6992 21.9857 21.6992 24.1629C21.6992 26.34 23.4249 28.1049 25.5538 28.1049ZM26.1748 22.827C26.1748 22.4762 25.8967 22.1919 25.5538 22.1919C25.2108 22.1919 24.9327 22.4762 24.9327 22.827V23.5497H24.2475C23.9045 23.5497 23.6265 23.834 23.6265 24.1848C23.6265 24.5355 23.9045 24.8199 24.2475 24.8199H25.5538C25.8967 24.8199 26.1748 24.5355 26.1748 24.1848V22.827Z" fill="white"/>
<path d="M19.0037 10.2789C17.537 9.97893 16.437 10.1539 16.0703 10.2789V19.7799H19.0037V10.2789Z" fill="white"/>
<path d="M18.6375 8.029C17.5375 6.9039 16.7125 7.904 16.4375 8.029V8.77897L17.5375 8.7789L18.6375 8.77897V8.029Z" fill="white"/>
</svg>
