<svg width="24" height="24" viewBox="0 0 24 24" fill="none" xmlns="http://www.w3.org/2000/svg">
<circle cx="12" cy="12" r="12" fill="#F48D31"/>
<path fill-rule="evenodd" clip-rule="evenodd" d="M11.9996 19.6363C16.2171 19.6363 19.636 16.2173 19.636 11.9999C19.636 7.78244 16.2171 4.36353 11.9996 4.36353C7.7822 4.36353 4.36328 7.78244 4.36328 11.9999C4.36328 16.2173 7.7822 19.6363 11.9996 19.6363ZM9.37354 7.73842L9.60329 10.0359C9.6177 10.18 9.73897 10.2897 9.8838 10.2897C10.0286 10.2897 10.1499 10.18 10.1643 10.0359L10.3941 7.73842H10.9043L11.1341 10.0359C11.1485 10.18 11.2698 10.2897 11.4146 10.2897C11.5594 10.2897 11.6807 10.18 11.6951 10.0359L11.9248 7.73842H12.4351V10.0346C12.4351 11.0209 11.6355 11.8205 10.6492 11.8205C9.66286 11.8205 8.86328 11.0209 8.86328 10.0346V7.73842H9.37354ZM10.6505 12.841C10.9368 12.841 11.1732 13.0647 11.1891 13.3505L11.3735 16.6692C11.3957 17.0684 11.09 17.4101 10.6907 17.4323C10.6773 17.433 10.6639 17.4334 10.6505 17.4334C10.2507 17.4334 9.92649 17.1092 9.92649 16.7093C9.92649 16.6959 9.92686 16.6825 9.92761 16.6692L10.112 13.3505C10.1279 13.0647 10.3643 12.841 10.6505 12.841ZM14.6822 14.3706C14.6617 14.0838 14.4231 13.8616 14.1356 13.8616C13.8481 13.8616 13.6095 14.0838 13.589 14.3706L13.4248 16.67C13.4235 16.6869 13.4229 16.7038 13.4229 16.7208C13.4229 17.1144 13.742 17.4335 14.1356 17.4335C14.1526 17.4335 14.1695 17.4329 14.1864 17.4317C14.579 17.4036 14.8745 17.0626 14.8465 16.67L14.6822 14.3706ZM14.8994 7.73845V12.8411H12.8583V9.7795C12.8583 8.65226 13.7721 7.73845 14.8994 7.73845Z" fill="white"/>
</svg>
