<svg width="24" height="24" viewBox="0 0 24 24" fill="none" xmlns="http://www.w3.org/2000/svg">
<circle cx="12" cy="12" r="12" fill="#F48D31"/>
<path d="M8.6652 5.3645C5.30892 5.46612 3.973 8.36794 4.13861 10.3326H8.6652L8.6652 5.3645Z" fill="white"/>
<path d="M8.66584 4.68706C8.37438 4.68706 8.16902 4.68706 7.80469 4.76609C7.88197 4.15637 8.42295 3.9983 8.66584 4.00959V4.68706Z" fill="white"/>
<path d="M8.66619 4.68754C8.95766 4.68754 9.16301 4.68754 9.52734 4.76658C9.45006 4.15686 8.90908 3.99878 8.66619 4.01008V4.68754Z" fill="white"/>
<path fill-rule="evenodd" clip-rule="evenodd" d="M10.6468 11.0215H3.73151C3.64686 11.029 3.47979 11.1096 3.48862 11.3715C3.49745 11.6335 3.55855 11.7818 3.58799 11.8232C3.70208 12 4.01415 12.3538 4.34978 12.3538H10.1764C10.2145 11.8602 10.3831 11.404 10.6468 11.0215Z" fill="white"/>
<path fill-rule="evenodd" clip-rule="evenodd" d="M13.2072 9.9135C13.1661 7.9806 11.7925 5.45911 8.66797 5.3645L8.66797 10.3326H11.3386C11.7559 10.0473 12.2575 9.88096 12.7971 9.88096C12.9366 9.88096 13.0736 9.89208 13.2072 9.9135Z" fill="white"/>
<path fill-rule="evenodd" clip-rule="evenodd" d="M12.7959 14.6232C13.8935 14.6232 14.7832 13.7132 14.7832 12.5908C14.7832 11.4683 13.8935 10.5583 12.7959 10.5583C11.6983 10.5583 10.8086 11.4683 10.8086 12.5908C10.8086 13.7132 11.6983 14.6232 12.7959 14.6232ZM13.1161 11.902C13.1161 11.7212 12.9727 11.5746 12.7959 11.5746C12.6191 11.5746 12.4757 11.7212 12.4757 11.902V12.2746H12.1224C11.9456 12.2746 11.8022 12.4212 11.8022 12.602C11.8022 12.7829 11.9456 12.9295 12.1224 12.9295H12.7959C12.9727 12.9295 13.1161 12.7829 13.1161 12.602V11.902Z" fill="white"/>
<path d="M9.41862 5.43281C8.66244 5.27814 8.0953 5.36837 7.90625 5.43281V10.3312H9.41862V5.43281Z" fill="white"/>
<path d="M9.23193 4.27273C8.6648 3.69267 8.23944 4.20829 8.09766 4.27273V4.6594L8.6648 4.65936L9.23193 4.6594V4.27273Z" fill="white"/>
<path fill-rule="evenodd" clip-rule="evenodd" d="M15.1255 7.85763C12.4316 7.23654 9.74442 8.91683 9.12334 11.6106C8.50227 14.3044 10.1825 16.9917 12.8763 17.6127C15.5702 18.2338 18.2574 16.5536 18.8785 13.8597C19.4995 11.1659 17.8193 8.47872 15.1255 7.85763Z" fill="#F48D31"/>
<path fill-rule="evenodd" clip-rule="evenodd" d="M15 18.5C17.7615 18.5 20 16.2614 20 13.5C20 10.7386 17.7615 8.5 15 8.5C12.2385 8.5 10 10.7386 10 13.5C10 16.2614 12.2385 18.5 15 18.5ZM15.8056 11.8056C15.8056 11.3607 15.4449 11 15 11C14.5551 11 14.1944 11.3607 14.1944 11.8056V12.7222H13.3056C12.8607 12.7222 12.5 13.0829 12.5 13.5278C12.5 13.9727 12.8607 14.3333 13.3056 14.3333H15C15.4449 14.3333 15.8056 13.9727 15.8056 13.5278V11.8056Z" fill="white"/>
</svg>
