<svg width="24" height="24" viewBox="0 0 24 24" fill="none" xmlns="http://www.w3.org/2000/svg">
<circle cx="12" cy="12" r="12" fill="#F48D31"/>
<path d="M9.56164 10.9739H5.44922C5.69113 12.0761 6.22332 14.3907 6.41685 15.1255C6.61037 15.8604 7.24336 16.0441 7.53567 16.0073H12.1621V12.1128H10.7712C10.0938 12.1128 9.6826 11.3535 9.56164 10.9739Z" fill="white"/>
<path d="M14.4305 10.9739H18.543C18.3011 12.0761 17.7689 14.3907 17.5753 15.1255C17.3818 15.8604 16.7488 16.0441 16.4565 16.0073H11.83V12.1128H13.221C13.8983 12.1128 14.3096 11.3535 14.4305 10.9739Z" fill="white"/>
<path d="M9.9863 10.1656H4.90625V9.21037C4.90625 8.50496 5.45054 8.18164 5.69245 8.18164H12.1635V11.2678H10.8935C10.4096 11.2678 10.077 10.6065 9.9863 10.1656Z" fill="white"/>
<path d="M14.0098 10.1656H19.0898V9.21037C19.0898 8.50496 18.5456 8.18164 18.3036 8.18164H11.8326V11.2678H13.1026C13.5865 11.2678 13.9191 10.6065 14.0098 10.1656Z" fill="white"/>
</svg>
