<svg width="52" height="45" viewBox="0 0 52 45" fill="none" xmlns="http://www.w3.org/2000/svg">
<g filter="url(#filter0_d_1_2)">
<mask id="mask0_1_2" style="mask-type:alpha" maskUnits="userSpaceOnUse" x="2" y="1" width="48" height="40">
<path d="M46 1H6C3.79086 1 2 2.79086 2 5V37C2 39.2091 3.79086 41 6 41H46C48.2091 41 50 39.2091 50 37V5C50 2.79086 48.2091 1 46 1Z" fill="white"/>
</mask>
<g mask="url(#mask0_1_2)">
<g filter="url(#filter1_d_1_2)">
<path d="M46 1H6C3.79086 1 2 2.79086 2 5V37C2 39.2091 3.79086 41 6 41H46C48.2091 41 50 39.2091 50 37V5C50 2.79086 48.2091 1 46 1Z" fill="black"/>
</g>
<path d="M46 1H6C3.79086 1 2 2.79086 2 5V37C2 39.2091 3.79086 41 6 41H46C48.2091 41 50 39.2091 50 37V5C50 2.79086 48.2091 1 46 1Z" fill="#F0F2F5"/>
<path d="M50 1H2V11H50V1Z" fill="white"/>
<path d="M6 1H2V41H6V1Z" fill="#303648"/>
</g>
</g>
<path d="M7 12C7 11.4477 7.44772 11 8 11H15C15.5523 11 16 11.4477 16 12V20C16 20.5523 15.5523 21 15 21H8C7.44772 21 7 20.5523 7 20V12Z" fill="#303648"/>
<path d="M17 14C17 13.4477 17.4477 13 18 13H25C25.5523 13 26 13.4477 26 14V15C26 15.5523 25.5523 16 25 16H18C17.4477 16 17 15.5523 17 15V14Z" fill="#303648"/>
<defs>
<filter id="filter0_d_1_2" x="0" y="0" width="52" height="44" filterUnits="userSpaceOnUse" color-interpolation-filters="sRGB">
<feFlood flood-opacity="0" result="BackgroundImageFix"/>
<feColorMatrix in="SourceAlpha" type="matrix" values="0 0 0 0 0 0 0 0 0 0 0 0 0 0 0 0 0 0 127 0" result="hardAlpha"/>
<feOffset dy="1"/>
<feGaussianBlur stdDeviation="1"/>
<feColorMatrix type="matrix" values="0 0 0 0 0 0 0 0 0 0 0 0 0 0 0 0 0 0 0.15 0"/>
<feBlend mode="normal" in2="BackgroundImageFix" result="effect1_dropShadow_1_2"/>
<feBlend mode="normal" in="SourceGraphic" in2="effect1_dropShadow_1_2" result="shape"/>
</filter>
<filter id="filter1_d_1_2" x="1" y="1" width="50" height="42" filterUnits="userSpaceOnUse" color-interpolation-filters="sRGB">
<feFlood flood-opacity="0" result="BackgroundImageFix"/>
<feColorMatrix in="SourceAlpha" type="matrix" values="0 0 0 0 0 0 0 0 0 0 0 0 0 0 0 0 0 0 127 0" result="hardAlpha"/>
<feOffset dy="1"/>
<feGaussianBlur stdDeviation="0.5"/>
<feColorMatrix type="matrix" values="0 0 0 0 0 0 0 0 0 0 0 0 0 0 0 0 0 0 0.1 0"/>
<feBlend mode="normal" in2="BackgroundImageFix" result="effect1_dropShadow_1_2"/>
<feBlend mode="normal" in="SourceGraphic" in2="effect1_dropShadow_1_2" result="shape"/>
</filter>
</defs>
</svg>
